<svg xmlns="http://www.w3.org/2000/svg" width="100" height="100" fill-rule="evenodd" clip-rule="evenodd" image-rendering="optimizeQuality" shape-rendering="geometricPrecision" text-rendering="geometricPrecision" viewBox="0 0 100000 100000" id="call"><path d="M42616 44396c0,0 6519,469 2739,-8079 -3783,-8548 -4279,-11238 -11643,-6403 -3513,2308 -5435,3409 -5959,5100 -3150,10100 28995,41644 37766,36997 1405,-745 2506,-2610 4558,-5734 4835,-7363 2142,-7859 -6404,-11641 -8549,-3782 -8079,2738 -8079,2738l-12978 -12978zm7384 -29356c19308,0 34960,15652 34960,34960 0,19308 -15652,34960 -34960,34960 -19308,0 -34960,-15652 -34960,-34960 0,-19308 15652,-34960 34960,-34960zm0 2644c-17848,0 -32316,14468 -32316,32316 0,17848 14468,32316 32316,32316 17848,0 32316,-14468 32316,-32316 0,-17848 -14468,-32316 -32316,-32316z"></path></svg>